<svg width="100" height="100" viewBox="0 0 100 100" xmlns="http://www.w3.org/2000/svg">
  <defs>
    <linearGradient id="dragonScaleGradient" x1="0%" y1="0%" x2="100%" y2="100%">
      <stop offset="0%" style="stop-color:#4A4A4A;stop-opacity:1" />
      <stop offset="100%" style="stop-color:#303030;stop-opacity:1" />
    </linearGradient>
    <linearGradient id="eyeGlow" x1="0%" y1="0%" x2="100%" y2="100%">
      <stop offset="0%" style="stop-color:#FF8C00;stop-opacity:1" />
      <stop offset="100%" style="stop-color:#FF4500;stop-opacity:1" />
    </linearGradient>
  </defs>

  <path d="M20,10 L80,10 C85,10 90,15 90,20 L90,50 L75,70 L60,90 L40,90 L25,70 L10,50 L10,20 C10,15 15,10 20,10 Z" fill="url(#dragonScaleGradient)" stroke="#282828" stroke-width="2.5"/>

  <path d="M25,20 L75,20 C78,20 80,22 80,25 L80,45 L68,60 L58,75 L42,75 L32,60 L20,45 L20,25 C20,22 22,20 25,20 Z" fill="#505050" opacity="0.7"/>


  <path d="M40,35 Q50,30 60,35 C55,45 53,55 50,60 Q47,55 45,45 C40,35 40,35 40,35 Z" fill="url(#eyeGlow)"/>
  <circle cx="50" cy="43" r="4" fill="#FFFACD"/> <path d="M42,38 Q50,34 58,38 C54,46 50,52 50,56 Q48,50 44,42 Z" fill="none" stroke="#FF4500" stroke-width="1.5" opacity="0.8"/>


  <path d="M18,8 L30,15 L25,5 Z" fill="#3D3D3D" stroke="#282828" stroke-width="1.5"/>
  <path d="M82,8 L70,15 L75,5 Z" fill="#3D3D3D" stroke="#282828" stroke-width="1.5"/>
  <path d="M55,88 L50,95 L45,88 Z" fill="#3D3D3D" stroke="#282828" stroke-width="1.5"/>

</svg>